<svg xmlns="http://www.w3.org/2000/svg" xmlns:xlink="http://www.w3.org/1999/xlink" width="40" height="40" viewBox="0 0 40 40"><defs><clipPath id="b"><rect width="40" height="40"/></clipPath></defs><g id="a" clip-path="url(#b)"><g transform="translate(1)"><path d="M44.953,28.375a1.15,1.15,0,0,0-1.125,1.175v9.1a3.455,3.455,0,0,1-3.374,3.524H13.748a3.455,3.455,0,0,1-3.374-3.524v-9.1a1.126,1.126,0,1,0-2.249,0v9.1a5.758,5.758,0,0,0,5.623,5.873H40.455a5.758,5.758,0,0,0,5.623-5.873v-9.1A1.149,1.149,0,0,0,44.953,28.375Z" transform="translate(-8.125 -4.98)" stroke="#000" stroke-width="0.4"/><path d="M26.349,34.037a1.087,1.087,0,0,1-1.175.973h0A1.088,1.088,0,0,1,24,34.037V8.848a1.089,1.089,0,0,1,1.175-.973h0a1.088,1.088,0,0,1,1.175.973Z" transform="translate(-6.198 -7.875)" stroke="#000" stroke-width="0.4"/><path d="M26.019,36.776a1.174,1.174,0,0,1-1.661.027h0a1.173,1.173,0,0,1-.027-1.661l6.737-6.965a1.174,1.174,0,0,1,1.661-.027h0a1.174,1.174,0,0,1,.027,1.661Z" transform="translate(-6.385 -8.113)" stroke="#000" stroke-width="0.4"/><path d="M25.332,36.776a1.175,1.175,0,0,0,1.661.027h0a1.174,1.174,0,0,0,.027-1.661l-6.737-6.965a1.174,1.174,0,0,0-1.661-.027h0a1.174,1.174,0,0,0-.027,1.661Z" transform="translate(-7.014 -8.113)" stroke="#000" stroke-width="0.4"/></g></g></svg>