<svg xmlns="http://www.w3.org/2000/svg" xmlns:xlink="http://www.w3.org/1999/xlink" width="40" height="40" viewBox="0 0 40 40"><defs><clipPath id="b"><rect width="40" height="40"/></clipPath></defs><g id="a" clip-path="url(#b)"><g transform="translate(-231 -129)"><g transform="translate(232 130)" fill="#fff"><path d="M 18.75 36.79999923706055 C 13.92866992950439 36.79999923706055 9.395919799804688 34.92247009277344 5.986720085144043 31.51328086853027 C 2.577529907226562 28.10408020019531 0.699999988079071 23.57132911682129 0.699999988079071 18.75 C 0.699999988079071 13.92866992950439 2.577529907226562 9.395919799804688 5.986720085144043 5.986720085144043 C 9.395919799804688 2.577529907226562 13.92866992950439 0.699999988079071 18.75 0.699999988079071 C 23.57132911682129 0.699999988079071 28.10408020019531 2.577529907226562 31.51328086853027 5.986720085144043 C 34.92247009277344 9.395919799804688 36.79999923706055 13.92866992950439 36.79999923706055 18.75 C 36.79999923706055 23.57132911682129 34.92247009277344 28.10408020019531 31.51328086853027 31.51328086853027 C 28.10408020019531 34.92247009277344 23.57132911682129 36.79999923706055 18.75 36.79999923706055 Z" stroke="none"/><path d="M 18.75 1.400001525878906 C 14.11565017700195 1.400001525878906 9.75868034362793 3.204708099365234 6.481700897216797 6.481700897216797 C 3.204708099365234 9.75868034362793 1.400001525878906 14.11565017700195 1.400001525878906 18.75 C 1.400001525878906 23.38434982299805 3.204708099365234 27.74131965637207 6.481700897216797 31.0182991027832 C 9.75868034362793 34.2952880859375 14.11565017700195 36.09999847412109 18.75 36.09999847412109 C 23.38434982299805 36.09999847412109 27.74131965637207 34.2952880859375 31.0182991027832 31.0182991027832 C 34.2952880859375 27.74131965637207 36.09999847412109 23.38434982299805 36.09999847412109 18.75 C 36.09999847412109 14.11565017700195 34.2952880859375 9.75868034362793 31.0182991027832 6.481700897216797 C 27.74131965637207 3.204708099365234 23.38434982299805 1.400001525878906 18.75 1.400001525878906 M 18.75 0 C 29.10533905029297 0 37.5 8.394660949707031 37.5 18.75 C 37.5 29.10533905029297 29.10533905029297 37.5 18.75 37.5 C 8.394660949707031 37.5 0 29.10533905029297 0 18.75 C 0 8.394660949707031 8.394660949707031 0 18.75 0 Z" stroke="none" fill="#116e99"/></g><g transform="translate(240 138)"><g transform="translate(0 0)"><path d="M14.384,37.278a.581.581,0,0,0,.238-.03l6.229-1.818a1.855,1.855,0,0,0,.894-.537L33.131,23.506a4.173,4.173,0,0,0-5.9-5.9L15.874,28.991a2.473,2.473,0,0,0-.536.894l-1.818,6.23a.921.921,0,0,0,.238.894A.909.909,0,0,0,14.384,37.278Zm12.19-16.454,3.368,3.368L21.09,33.045l-3.368-3.368Zm3.636-2.653a2.521,2.521,0,0,1,1.7.686,2.448,2.448,0,0,1,0,3.4l-.686.656-3.368-3.368.656-.656A2.37,2.37,0,0,1,30.211,18.171ZM16.8,31.256l2.682,2.683-3.785,1.1Z" transform="translate(-13.486 -16.375)" fill="#116e99"/></g></g></g></g></svg>