<svg xmlns="http://www.w3.org/2000/svg" xmlns:xlink="http://www.w3.org/1999/xlink" width="40" height="40" viewBox="0 0 40 40"><defs><clipPath id="b"><rect width="40" height="40"/></clipPath></defs><g id="a" clip-path="url(#b)"><g transform="translate(-7.068 -14.787)"><path d="M41.392,31.952a.975.975,0,1,1,1.945,0V47.738a4.336,4.336,0,0,1-4.151,4.477H15.116a4.334,4.334,0,0,1-4.151-4.477V31.952a.975.975,0,1,1,1.945,0V47.738a2.307,2.307,0,0,0,2.206,2.379H39.186a2.3,2.3,0,0,0,2.206-2.379Zm.512-4.238,3.151,1.93c1.1.713,2.1-1.083,1-1.8L43.337,26.2V23.1a1.015,1.015,0,0,0-.974-1.05c-1.244,0-.974,1.665-.974,2.883L30.377,17.778a5.745,5.745,0,0,0-6.45,0L8.184,28.564c-1.1.713-.093,2.506,1,1.8L24.928,19.574a3.936,3.936,0,0,1,4.445,0l12.45,8.088c.027.019.054.035.081.052ZM23.1,46.625V39.333a4.533,4.533,0,0,1,1.192-3.088c2.575-2.777,6.915-.748,6.915,3.088v7.292a.975.975,0,1,0,1.945,0l0-7.292a6.712,6.712,0,0,0-1.762-4.571c-3.8-4.1-10.236-1.127-10.236,4.571v7.292a.974.974,0,1,0,1.943,0Z" transform="translate(0)" stroke="#131313" stroke-width="0.5" fill-rule="evenodd"/></g></g></svg>