<svg xmlns="http://www.w3.org/2000/svg" xmlns:xlink="http://www.w3.org/1999/xlink" width="40" height="40" viewBox="0 0 40 40"><defs><clipPath id="b"><rect width="40" height="40"/></clipPath></defs><g id="a" clip-path="url(#b)"><g transform="translate(-3.561 -2)"><path d="M39.543,1H8.928A3.884,3.884,0,0,0,4.914,4.731V38.346a.792.792,0,0,0,.456.705.915.915,0,0,0,.884-.042l6-2.864,6.078,3.068a.914.914,0,0,0,.982,0l6.556-3.068,4.773,2.905a.913.913,0,0,0,.983,0l5.094-2.905,5.5,2.863a.915.915,0,0,0,.884.042.793.793,0,0,0,.456-.705V4.731A3.885,3.885,0,0,0,39.543,1Zm2.294,35.846L37.19,34.514a.914.914,0,0,0-.971.008l-5.085,2.9-4.773-2.905a.913.913,0,0,0-.983,0l-6.556,3.068-6.069-3.063a.914.914,0,0,0-.971-.008L6.634,36.847V4.731A2.22,2.22,0,0,1,8.928,2.6H39.543a2.221,2.221,0,0,1,2.294,2.132V36.846ZM37.552,17.8a.831.831,0,0,1-.86.8H19.313a.8.8,0,1,1,0-1.6h17.38A.831.831,0,0,1,37.552,17.8Zm-22.124,0a.831.831,0,0,1-.86.8H12.93a.8.8,0,1,1,0-1.6h1.639A.831.831,0,0,1,15.429,17.8Zm0,6.258a.831.831,0,0,1-.86.8H12.93a.8.8,0,1,1,0-1.6h1.639A.831.831,0,0,1,15.429,24.061Zm22.124,0a.831.831,0,0,1-.86.8H19.313a.8.8,0,1,1,0-1.6h17.38A.831.831,0,0,1,37.552,24.061ZM15.429,30.319a.831.831,0,0,1-.86.8H12.93a.8.8,0,1,1,0-1.6h1.639A.831.831,0,0,1,15.429,30.319Zm22.124,0a.831.831,0,0,1-.86.8H19.313a.8.8,0,1,1,0-1.6h17.38A.831.831,0,0,1,37.552,30.319Z" transform="translate(-0.674 2)" fill="#1d1c1b" stroke="#1d1c1b" stroke-width="1"/><rect width="26" height="5" rx="2" transform="translate(10.525 8.853)" fill="#f29200"/></g></g></svg>