<svg xmlns="http://www.w3.org/2000/svg" xmlns:xlink="http://www.w3.org/1999/xlink" width="40" height="40" viewBox="0 0 40 40"><defs><clipPath id="b"><rect width="40" height="40"/></clipPath></defs><g id="a" clip-path="url(#b)"><g transform="translate(-4.5 -0.45)"><path d="M33.756,5.8H27.326a.506.506,0,0,0,0,1.012H33.75a.509.509,0,0,0,.506-.506A.5.5,0,0,0,33.756,5.8Z" transform="translate(-5.698 -1.731)"/><path d="M24.216,5.8h-.741a.506.506,0,0,0,0,1.012h.741a.506.506,0,1,0,0-1.012Z" transform="translate(-4.166 -1.731)"/><path d="M33.93,1.45H15.757A3.261,3.261,0,0,0,12.5,4.714V36.186a3.265,3.265,0,0,0,3.257,3.264H33.924a3.261,3.261,0,0,0,3.257-3.264V4.707A3.251,3.251,0,0,0,33.93,1.45ZM13.512,7.574H36.175V32.158H13.512Zm0-2.866a2.256,2.256,0,0,1,2.252-2.252H33.93a2.256,2.256,0,0,1,2.252,2.252V6.562H13.512ZM36.175,36.186a2.256,2.256,0,0,1-2.252,2.252H15.757a2.256,2.256,0,0,1-2.252-2.252V33.176H36.169v3.011Z" transform="translate(0 0)" stroke="#000" stroke-width="0.8"/><path d="M31.9,59.064A1.662,1.662,0,1,0,30.24,57.4,1.665,1.665,0,0,0,31.9,59.064Zm0-2.306a.65.65,0,1,1-.65.65A.648.648,0,0,1,31.9,56.758Z" transform="translate(-7.058 -21.601)"/><g transform="translate(16.016 16.563)"><path d="M34.447,26.55H19.893A1.552,1.552,0,0,0,18.34,28.1v2.234a1.552,1.552,0,0,0,1.553,1.547H34.441a1.547,1.547,0,0,0,1.547-1.547V28.1A1.542,1.542,0,0,0,34.447,26.55Zm.536,3.787a.537.537,0,0,1-.536.536H19.893a.538.538,0,0,1-.542-.536V28.1a.542.542,0,0,1,.542-.536H34.441a.537.537,0,0,1,.536.536v2.234Z" transform="translate(-18.34 -26.55)"/><path d="M23.762,29.262a.505.505,0,0,0-.717,0l-.259.259-.259-.259a.507.507,0,0,0-.717.717l.259.259-.259.259a.505.505,0,0,0,0,.717.513.513,0,0,0,.355.151.478.478,0,0,0,.355-.151l.259-.259.259.259a.513.513,0,0,0,.355.151.488.488,0,0,0,.355-.151.505.505,0,0,0,0-.717l-.259-.259.259-.259A.5.5,0,0,0,23.762,29.262Z" transform="translate(-19.662 -27.57)"/><path d="M30.072,29.262a.505.505,0,0,0-.717,0l-.259.259-.259-.259a.507.507,0,0,0-.717.717l.259.259-.259.259a.505.505,0,0,0,0,.717.513.513,0,0,0,.355.151.478.478,0,0,0,.355-.151l.259-.259.259.259a.513.513,0,0,0,.355.151.478.478,0,0,0,.355-.151.505.505,0,0,0,0-.717l-.259-.259.259-.259A.5.5,0,0,0,30.072,29.262Z" transform="translate(-22.173 -27.57)"/><path d="M36.382,29.262a.505.505,0,0,0-.717,0l-.259.259-.259-.259a.507.507,0,0,0-.717.717l.259.259-.259.259a.505.505,0,0,0,0,.717.513.513,0,0,0,.355.151.488.488,0,0,0,.355-.151l.259-.259.259.259a.513.513,0,0,0,.355.151.488.488,0,0,0,.355-.151.505.505,0,0,0,0-.717l-.259-.259.259-.259A.5.5,0,0,0,36.382,29.262Z" transform="translate(-24.683 -27.57)"/><path d="M42.692,29.262a.505.505,0,0,0-.717,0l-.259.259-.259-.259a.507.507,0,1,0-.717.717l.259.259-.259.259a.505.505,0,0,0,0,.717.513.513,0,0,0,.355.151.488.488,0,0,0,.355-.151l.259-.259.259.259a.513.513,0,0,0,.355.151.488.488,0,0,0,.355-.151.505.505,0,0,0,0-.717l-.259-.259.259-.259A.5.5,0,0,0,42.692,29.262Z" transform="translate(-27.194 -27.57)"/></g></g></g></svg>