<svg xmlns="http://www.w3.org/2000/svg" xmlns:xlink="http://www.w3.org/1999/xlink" width="40" height="40" viewBox="0 0 40 40"><defs><clipPath id="b"><rect width="40" height="40"/></clipPath></defs><g id="a" clip-path="url(#b)"><g transform="translate(-11.718 -12.5)"><g transform="translate(4.938 29.855)"><path d="M38.933,25.55H20.326a1.984,1.984,0,0,0-1.986,1.978v3.856a1.984,1.984,0,0,0,1.986,1.978h18.6A1.978,1.978,0,0,0,40.9,31.385V27.528A1.971,1.971,0,0,0,38.933,25.55Zm.685,5.842a.687.687,0,0,1-.685.685H20.326a.688.688,0,0,1-.693-.685V27.536a.693.693,0,0,1,.693-.685h18.6a.687.687,0,0,1,.685.685v3.856Z" transform="translate(-2.56 -11.003)"/><path d="M24.347,29.3a.646.646,0,0,0-.916,0l-.331.331-.331-.331a.648.648,0,0,0-.916.916l.331.331-.331.331a.646.646,0,0,0,0,.916.655.655,0,0,0,.454.192.611.611,0,0,0,.454-.192l.331-.331.331.331a.655.655,0,0,0,.454.192.624.624,0,0,0,.454-.192.646.646,0,0,0,0-.916L24,30.55l.331-.331A.633.633,0,0,0,24.347,29.3Z" transform="translate(-3.324 -12.098)"/><path d="M30.657,29.3a.646.646,0,0,0-.916,0l-.331.331-.331-.331a.648.648,0,0,0-.916.916l.331.331-.331.331a.646.646,0,0,0,0,.916.655.655,0,0,0,.454.192.611.611,0,0,0,.454-.192l.331-.331.331.331a.655.655,0,0,0,.454.192.611.611,0,0,0,.454-.192.646.646,0,0,0,0-.916l-.331-.331.331-.331A.633.633,0,0,0,30.657,29.3Z" transform="translate(-4.776 -12.098)"/><path d="M36.967,29.3a.646.646,0,0,0-.916,0l-.331.331-.331-.331a.648.648,0,0,0-.916.916l.331.331-.331.331a.646.646,0,0,0,0,.916.655.655,0,0,0,.454.192.624.624,0,0,0,.454-.192l.331-.331.331.331a.655.655,0,0,0,.454.192.624.624,0,0,0,.454-.192.646.646,0,0,0,0-.916l-.331-.331.331-.331A.633.633,0,0,0,36.967,29.3Z" transform="translate(-6.228 -12.098)"/><path d="M43.277,29.3a.646.646,0,0,0-.916,0l-.331.331L41.7,29.3a.648.648,0,0,0-.916.916l.331.331-.331.331a.646.646,0,0,0,0,.916.655.655,0,0,0,.454.192.624.624,0,0,0,.454-.192l.331-.331.331.331a.655.655,0,0,0,.454.192.624.624,0,0,0,.454-.192.646.646,0,0,0,0-.916l-.331-.331.331-.331A.633.633,0,0,0,43.277,29.3Z" transform="translate(-7.681 -12.098)"/></g></g><g transform="translate(1 -1)"><g transform="translate(5 2)" fill="none" stroke="#131313" stroke-width="2"><circle cx="14.5" cy="14.5" r="14.5" stroke="none"/><circle cx="14.5" cy="14.5" r="13.5" fill="none"/></g><g transform="translate(-7.762 -12.385)"><path d="M39.5,31.076a4.6,4.6,0,1,0-4.6-4.6A4.6,4.6,0,0,0,39.5,31.076Zm0-7.787a3.187,3.187,0,1,1-3.187,3.187A3.19,3.19,0,0,1,39.5,23.289Z" transform="translate(-11.742)" stroke="#131313" stroke-width="0.5"/><path d="M30.813,53.828H24.7a6.7,6.7,0,0,0-6.693,6.693.707.707,0,1,0,1.414,0,5.29,5.29,0,0,1,5.283-5.283h6.109A5.29,5.29,0,0,1,36.1,60.521a.707.707,0,1,0,1.414,0,6.7,6.7,0,0,0-6.693-6.693Z" transform="translate(0 -22.219)" stroke="#131313" stroke-width="0.5"/></g></g></g></svg>