<svg xmlns="http://www.w3.org/2000/svg" xmlns:xlink="http://www.w3.org/1999/xlink" width="453.51" height="316.693" viewBox="0 0 453.51 316.693"><defs><linearGradient id="a" x1="0.5" x2="0.5" y2="1" gradientUnits="objectBoundingBox"><stop offset="0" stop-color="#f68f3d"/><stop offset="0.498" stop-color="#f27758"/><stop offset="1" stop-color="#f05e63"/></linearGradient></defs><path d="M254.571,341.589q-39.512-47.651-79.061-95.271a11.988,11.988,0,0,1-2.954-8.33q.142-54.092.059-108.183v-7c-2.709-.36-5.138-.738-7.582-1-13.642-1.455-27.318-2.652-40.92-4.409a60.152,60.152,0,0,1-21.946-7.451,38.642,38.642,0,0,1-18.9-24.107,9.14,9.14,0,0,1-.371-1.578,6.206,6.206,0,0,1,.4-1.516L201.926,95.425v6.951q0,60.885-.065,121.773a15.035,15.035,0,0,0,3.527,10.339c16.187,19.731,32.173,39.627,48.236,59.46,1.117,1.379,2.314,2.695,3.754,4.368,1.272-1.406,2.382-2.506,3.35-3.721,16.032-20.091,31.987-40.241,48.125-60.247a15.22,15.22,0,0,0,3.656-10.3c-.129-40.41-.078-80.82-.078-121.231V95.6c40.125-4.564,80.039-8.828,120.618-13.228-2.126,10.5-6.694,18.564-14.633,24.633a47.98,47.98,0,0,1-20.6,9.25c-10.283,1.868-20.685,3.143-31.073,4.352-6.453.751-12.977.889-19.464,1.354-1.6.116-3.194.437-5.533.769v6.413c0,35.7-.047,71.4.069,107.1a14.392,14.392,0,0,1-3.363,9.849q-38.833,47.857-77.44,95.9c-.888,1.1-1.891,2.1-3.043,3.377C256.693,343.96,255.585,342.814,254.571,341.589Zm-26.882-90.122c-5.385-5.72-7-11.792-6.954-19.5.305-47.831.152-95.667.152-143.5V81.18c-4.275-.571-7.984-1.135-11.712-1.557Q154.264,73.4,99.347,67.212c-11.124-1.266-22.423-1.794-33.306-4.193-16.933-3.731-28.142-14.711-34-31.095a7.19,7.19,0,0,1,.121-1.858l216.674,23.6c1.11,4.234,1.514,213.626.384,223.441C241.657,268.014,235.1,259.34,227.689,251.467ZM266.664,53.733,484.334,30c-.741,2.57-.985,4.5-1.816,6.12-7.8,15.244-19.387,25.694-36.92,27.76-38.4,4.522-76.818,8.808-115.23,13.174-10.771,1.225-21.547,2.389-32.32,3.594-.7.08-1.385.295-2.911.632v6.75q0,74.495.09,148.988a15.067,15.067,0,0,1-3.93,10.717c-7.352,8.479-14.393,17.228-21.565,25.859-.792.953-1.649,1.848-2.58,2.888C265.887,272.709,265.437,62.932,266.664,53.733Z" transform="translate(-31.512 -29.423)" stroke="rgba(0,0,0,0)" stroke-miterlimit="10" stroke-width="1" opacity="0.06" fill="url(#a)"/></svg>