<svg xmlns="http://www.w3.org/2000/svg" width="125.922" height="88.056" viewBox="0 0 125.922 88.056"><g transform="translate(0.496 0.578)"><path d="M61.377,85.694q-10.9-13.105-21.8-26.2a3.292,3.292,0,0,1-.815-2.291q.039-14.877.016-29.753V25.523c-.747-.1-1.417-.2-2.091-.275-3.762-.4-7.533-.729-11.284-1.213a16.618,16.618,0,0,1-6.052-2.049,10.632,10.632,0,0,1-5.213-6.63,2.508,2.508,0,0,1-.1-.434,1.7,1.7,0,0,1,.11-.417L46.86,17.993V19.9q0,16.745-.018,33.491a4.128,4.128,0,0,0,.973,2.843c4.464,5.426,8.872,10.9,13.3,16.353.308.379.638.741,1.035,1.2.351-.387.657-.689.924-1.023C67.5,67.244,71.9,61.7,76.347,56.2a4.179,4.179,0,0,0,1.008-2.833c-.036-11.114-.022-22.227-.022-33.341V18.043C88.4,16.787,99.405,15.615,110.6,14.4a10.729,10.729,0,0,1-4.035,6.775,13.248,13.248,0,0,1-5.682,2.544c-2.836.514-5.7.864-8.569,1.2-1.779.207-3.579.244-5.368.372-.442.032-.881.12-1.526.212v1.764c0,9.818-.013,19.636.019,29.454a3.951,3.951,0,0,1-.928,2.709Q73.8,72.592,63.152,85.8c-.245.3-.521.579-.839.929C61.963,86.346,61.657,86.031,61.377,85.694ZM53.964,60.908a7.078,7.078,0,0,1-1.918-5.363c.084-13.155.042-26.311.042-39.467v-2c-1.179-.157-2.2-.312-3.23-.428q-15.143-1.711-30.287-3.413A90.052,90.052,0,0,1,9.387,9.081C4.718,8.055,1.627,5.035.011.529A1.972,1.972,0,0,1,.044.018L59.8,6.51c.306,1.164.417,58.752.106,61.451C57.816,65.459,56.008,63.074,53.964,60.908ZM64.712,6.527,124.738,0a10.4,10.4,0,0,1-.5,1.683c-2.151,4.192-5.346,7.066-10.181,7.635-10.588,1.244-21.184,2.422-31.776,3.623-2.97.337-5.942.657-8.913.988-.193.022-.382.081-.8.174v1.856q0,20.488.025,40.975a4.137,4.137,0,0,1-1.084,2.947c-2.027,2.332-3.969,4.738-5.947,7.112-.218.262-.455.508-.711.794C64.5,66.751,64.374,9.057,64.712,6.527Z" fill="#fff" stroke="rgba(0,0,0,0)" stroke-miterlimit="10" stroke-width="1"/></g></svg>