<svg xmlns="http://www.w3.org/2000/svg" xmlns:xlink="http://www.w3.org/1999/xlink" width="40" height="40" viewBox="0 0 40 40"><defs><clipPath id="b"><rect width="40" height="40"/></clipPath></defs><g id="a" clip-path="url(#b)"><g transform="translate(0 0)"><g transform="translate(0 0)"><path d="M5.513,33.714a1.735,1.735,0,0,1,1.831,1.693C7.523,37.471,9,39.4,10.08,39.618a26.735,26.735,0,0,0,11.393,0c1.1-.221,2.578-2.15,2.754-4.2a143.849,143.849,0,0,0,0-22.829c-.179-2.062-1.654-3.99-2.737-4.209A26.725,26.725,0,0,0,10.1,8.38C9,8.6,7.523,10.532,7.344,12.593a1.724,1.724,0,0,1-1.831,1.693,1.835,1.835,0,0,1-1.5-2.057c.315-3.621,2.784-7.011,5.527-7.561a29.592,29.592,0,0,1,12.527.005c2.721.545,5.191,3.935,5.507,7.571a147.863,147.863,0,0,1,0,23.527c-.313,3.621-2.784,7.011-5.525,7.561A33.509,33.509,0,0,1,15.793,44a33.683,33.683,0,0,1-6.28-.67c-2.721-.547-5.189-3.937-5.5-7.559a1.837,1.837,0,0,1,1.5-2.057" transform="translate(11.964 -4)" fill="#fff" fill-rule="evenodd"/><path d="M9.684,16.611a1.486,1.486,0,0,1-.042-.217s0,0,0-.009a1.686,1.686,0,0,1,.141-.655,16.839,16.839,0,0,1,5.478-6.864,1.678,1.678,0,1,1,2.093,2.623,15.813,15.813,0,0,0-3.186,3.257l21.2.172a1.677,1.677,0,0,1-.013,3.354h-.011L14.583,18.1a15.434,15.434,0,0,0,2.953,2.4A1.677,1.677,0,0,1,15.8,23.369c-2.043-1.234-4.849-3.624-6.019-6.3,0-.007,0-.011,0-.018a1.693,1.693,0,0,1-.094-.445" transform="translate(-9.64 3.714)" fill="#fff" fill-rule="evenodd"/></g></g></g></svg>