<svg xmlns="http://www.w3.org/2000/svg" width="23.75" height="23.75" viewBox="0 0 23.75 23.75"><path d="M20,12.875a3.167,3.167,0,1,0-3.167-3.167A3.17,3.17,0,0,0,20,12.875Zm0-4.75a1.583,1.583,0,1,1-1.583,1.583A1.585,1.585,0,0,1,20,8.125Zm3.089,5.891a.794.794,0,0,0-.884-.1,4.833,4.833,0,0,1-4.41,0,.794.794,0,0,0-.884.1,4.755,4.755,0,0,0-1.661,3.609v.792a.791.791,0,0,0,.792.792h7.917a.791.791,0,0,0,.792-.792v-.792A4.755,4.755,0,0,0,23.089,14.016Zm-6.255,3.609a3.171,3.171,0,0,1,.761-2.058,6.427,6.427,0,0,0,4.812,0,3.171,3.171,0,0,1,.761,2.058ZM12.875,10.5H10.5V8.125a.792.792,0,0,0-1.351-.56L4.4,12.315a.791.791,0,0,0,0,1.119l4.75,4.75a.792.792,0,0,0,1.351-.56V15.25h2.375a.791.791,0,0,0,.792-.792V11.292A.791.791,0,0,0,12.875,10.5Zm-.792,3.167H9.708a.791.791,0,0,0-.792.792v1.256L6.078,12.875l2.839-2.839v1.256a.791.791,0,0,0,.792.792h2.375ZM13.667,1.792a.791.791,0,0,1-.792.792H4.167A1.585,1.585,0,0,0,2.583,4.167V21.583a1.585,1.585,0,0,0,1.583,1.583h8.708a.792.792,0,1,1,0,1.583H4.167A3.17,3.17,0,0,1,1,21.583V4.167A3.17,3.17,0,0,1,4.167,1h8.708A.791.791,0,0,1,13.667,1.792Z" transform="translate(-1 -1)" fill="#f29200"/><path d="M14.186,13.122H11.811V10.747a.792.792,0,0,0-1.351-.56l-4.75,4.75a.791.791,0,0,0,0,1.119l4.75,4.75a.792.792,0,0,0,1.351-.56V17.872h2.375a.791.791,0,0,0,.792-.792V13.914A.791.791,0,0,0,14.186,13.122Zm-.792,3.167H11.019a.791.791,0,0,0-.792.792v1.256L7.389,15.5l2.839-2.839v1.256a.791.791,0,0,0,.792.792h2.375Z" transform="translate(-2.311 -3.622)" fill="#f29200"/></svg>