<svg xmlns="http://www.w3.org/2000/svg" xmlns:xlink="http://www.w3.org/1999/xlink" width="40" height="40" viewBox="0 0 40 40"><defs><clipPath id="b"><rect width="40" height="40"/></clipPath></defs><g id="a" clip-path="url(#b)"><g transform="translate(-3 -3)"><g transform="translate(3 3)"><path d="M38.385,3H13.769A4.62,4.62,0,0,0,9.154,7.615V9.154H7.615A4.62,4.62,0,0,0,3,13.769V38.385A4.62,4.62,0,0,0,7.615,43H32.231a4.62,4.62,0,0,0,4.615-4.615V36.846h1.538A4.62,4.62,0,0,0,43,32.231V7.615A4.62,4.62,0,0,0,38.385,3ZM33.769,38.385a1.54,1.54,0,0,1-1.538,1.538H7.615a1.54,1.54,0,0,1-1.538-1.538V13.769a1.54,1.54,0,0,1,1.538-1.538H32.231a1.54,1.54,0,0,1,1.538,1.538Zm6.154-6.154a1.54,1.54,0,0,1-1.538,1.538H36.846v-20a4.62,4.62,0,0,0-4.615-4.615h-20V7.615a1.54,1.54,0,0,1,1.538-1.538H38.385a1.54,1.54,0,0,1,1.538,1.538Z" transform="translate(-3 -3)"/><path d="M7.769,14.077h20a.769.769,0,0,0,.769-.769V11.769A.769.769,0,0,0,27.769,11h-20A.769.769,0,0,0,7,11.769v1.538A.769.769,0,0,0,7.769,14.077Z" transform="translate(-0.846 2.846)" fill="#f29200"/><path d="M7.769,22.077h20a.769.769,0,0,0,.769-.769V19.769A.769.769,0,0,0,27.769,19h-20A.769.769,0,0,0,7,19.769v1.538A.769.769,0,0,0,7.769,22.077Z" transform="translate(-0.846 2.538)" fill="#f29200"/><path d="M7.769,26.077h20a.769.769,0,0,0,.769-.769V23.769A.769.769,0,0,0,27.769,23h-20A.769.769,0,0,0,7,23.769v1.538A.769.769,0,0,0,7.769,26.077Z" transform="translate(-0.846 6.231)"/></g></g></g></svg>