<svg xmlns="http://www.w3.org/2000/svg" xmlns:xlink="http://www.w3.org/1999/xlink" width="40" height="40" viewBox="0 0 40 40"><defs><clipPath id="b"><rect width="40" height="40"/></clipPath></defs><g id="a" clip-path="url(#b)"><path d="M82.345,75.8a31.28,31.28,0,0,0-6.222-4.156c-2.071-1.043-2.242-1.129-3.87.081-1.086.807-1.808,1.528-3.079,1.257a16.489,16.489,0,0,1-6.451-4.21c-2.418-2.41-4.035-5.252-4.307-6.519s.461-1.98,1.261-3.069c1.127-1.534,1.042-1.79.078-3.861a28.327,28.327,0,0,0-4.168-6.205c-1.464-1.446-1.464-1.191-2.408-.8a13.651,13.651,0,0,0-2.2,1.174,6.6,6.6,0,0,0-2.65,2.79c-.529,1.131-.767,3.783,1.966,8.749a43.338,43.338,0,0,0,8.621,11.463A47.169,47.169,0,0,0,70.4,81.082c5.52,3.092,7.637,2.489,8.772,1.96a6.575,6.575,0,0,0,2.8-2.642,13.561,13.561,0,0,0,1.176-2.2C83.538,77.261,83.794,77.261,82.345,75.8Z" transform="translate(-45.494 -45.512)" fill="none" stroke="#1d1c1b" stroke-miterlimit="10" stroke-width="2.2"/></g></svg>