<svg xmlns="http://www.w3.org/2000/svg" xmlns:xlink="http://www.w3.org/1999/xlink" width="40" height="40" viewBox="0 0 40 40"><defs><clipPath id="b"><rect width="40" height="40"/></clipPath></defs><g id="a" clip-path="url(#b)"><path d="M74.07,21.02h9.41a1.02,1.02,0,0,1,1.008,1.033V57.967A1.02,1.02,0,0,1,83.48,59H50.508A1.02,1.02,0,0,1,49.5,57.967V22.053a1.02,1.02,0,0,1,1.008-1.033h9.41v-.986A1.02,1.02,0,0,1,60.925,19H73.063a1.02,1.02,0,0,1,1.008,1.033Zm-7.259,29.3a1.034,1.034,0,0,1,0-2.067h9.56a1.034,1.034,0,0,1,0,2.067Zm-9.907-.31a1.051,1.051,0,0,1,0-1.461.988.988,0,0,1,1.425,0l1.138,1.167,2.977-3.052a.988.988,0,0,1,1.425,0,1.051,1.051,0,0,1,0,1.461L60.18,51.908a.988.988,0,0,1-1.425,0l-1.851-1.9Zm3.012-26.923h-8.4V56.933H82.471V23.087h-8.4v1.487a1.02,1.02,0,0,1-1.008,1.033H60.924a1.02,1.02,0,0,1-1.008-1.033V23.087Zm12.137.454V21.067H61.932V23.54Z" transform="translate(-46.5 -19)"/><path d="M66.811,42.7a1.034,1.034,0,0,1,0-2.067h9.56a1.034,1.034,0,0,1,0,2.067Zm-9.907-.31a1.051,1.051,0,0,1,0-1.461.988.988,0,0,1,1.425,0l1.138,1.169,2.977-3.053a.988.988,0,0,1,1.425,0,1.051,1.051,0,0,1,0,1.461L60.18,44.284a.988.988,0,0,1-1.425,0Zm9.907-7.312a1.034,1.034,0,0,1,0-2.067h9.56a1.034,1.034,0,0,1,0,2.067Zm-9.907-.31a1.051,1.051,0,0,1,0-1.461.988.988,0,0,1,1.425,0l1.138,1.167,2.977-3.052a.988.988,0,0,1,1.425,0,1.051,1.051,0,0,1,0,1.461L60.18,36.662a.988.988,0,0,1-1.425,0l-1.851-1.9Z" transform="translate(-46.5 -19)" fill="#f29200"/></g></svg>