<svg xmlns="http://www.w3.org/2000/svg" xmlns:xlink="http://www.w3.org/1999/xlink" width="40" height="40" viewBox="0 0 40 40"><defs><clipPath id="b"><rect width="40" height="40"/></clipPath></defs><g id="a" clip-path="url(#b)"><path d="M43.277,6.25H9.1A2.845,2.845,0,0,0,6.25,9.1v7.6A2.845,2.845,0,0,0,9.1,19.542h3.8V45.176a.94.94,0,0,0,.949.949h1.9a.94.94,0,0,0,.949-.949,1.9,1.9,0,0,1,3.8,0,.94.94,0,0,0,.949.949h1.9a.94.94,0,0,0,.949-.949,1.9,1.9,0,0,1,3.8,0,.94.94,0,0,0,.949.949h1.9a.94.94,0,0,0,.949-.949,1.9,1.9,0,0,1,3.8,0,.94.94,0,0,0,.949.949h1.9a.94.94,0,0,0,.949-.949V19.542h3.8a2.845,2.845,0,0,0,2.848-2.848V9.1A2.845,2.845,0,0,0,43.277,6.25Zm-5.7,37.976h-.114a3.805,3.805,0,0,0-7.366,0h-.247a3.805,3.805,0,0,0-7.366,0h-.247a3.805,3.805,0,0,0-7.366,0h-.114l-.193-30.568H37.352l.191,30.568Zm6.645-27.533a.94.94,0,0,1-.949.949h-3.8l-.191-3.986h.832a.949.949,0,0,0,0-1.9H11.875a.949.949,0,0,0,0,1.9h.831l.191,3.986H9.1a.94.94,0,0,1-.949-.949l0-7.594A.94.94,0,0,1,9.1,8.149H43.277a.94.94,0,0,1,.949.949v7.6Z" transform="translate(-6.25 -6.25)" stroke="#000" stroke-width="0.2"/><path d="M47.45,58.832H36.343a.925.925,0,1,0,0,1.85H47.45a.925.925,0,1,0,0-1.85Z" transform="translate(-21.959 -34.84)" stroke="#000" stroke-width="0.2"/><path d="M47.45,58.832H36.343a.925.925,0,1,0,0,1.85H47.45a.925.925,0,1,0,0-1.85Z" transform="translate(-21.959 -47.159)" stroke="#000" stroke-width="0.2"/><path d="M47.45,58.832H36.343a.925.925,0,1,0,0,1.85H47.45a.925.925,0,1,0,0-1.85Z" transform="translate(-21.671 -42.14)" stroke="#000" stroke-width="0.2"/><path d="M41.249,67.168H36.343a.925.925,0,1,0,0,1.85h4.906a.925.925,0,0,0,0-1.85Z" transform="translate(-22.056 -39.372)" stroke="#000" stroke-width="0.2"/></g></svg>