<svg xmlns="http://www.w3.org/2000/svg" xmlns:xlink="http://www.w3.org/1999/xlink" width="40" height="40" viewBox="0 0 40 40"><defs><clipPath id="b"><rect width="40" height="40"/></clipPath></defs><g id="a" clip-path="url(#b)"><g transform="translate(-77.78 -27.5)"><path d="M110.186,32.775H108.58V31.22a3.788,3.788,0,0,0-3.843-3.72H79.623a3.788,3.788,0,0,0-3.843,3.72V58.505a3.788,3.788,0,0,0,3.843,3.72h4.705V63.78a3.788,3.788,0,0,0,3.843,3.72h22.015a3.788,3.788,0,0,0,3.843-3.72V36.495a3.788,3.788,0,0,0-3.843-3.72ZM78.041,58.506V31.22a1.559,1.559,0,0,1,1.582-1.532h25.115a1.559,1.559,0,0,1,1.582,1.532V58.505a1.559,1.559,0,0,1-1.582,1.532H79.623a1.559,1.559,0,0,1-1.582-1.532Zm33.729,5.275a1.559,1.559,0,0,1-1.582,1.532H88.171a1.559,1.559,0,0,1-1.582-1.532V62.226h18.149a3.788,3.788,0,0,0,3.843-3.72V34.963h1.606a1.559,1.559,0,0,1,1.582,1.532V63.78Z" transform="translate(3)"/></g><path d="M99.5,34.537v2.825a1.131,1.131,0,0,1-2.261,0v-.183l-3.206,3.1a1.157,1.157,0,0,1-1.6,0l-2.372-2.3-3.266,3.162a1.157,1.157,0,0,1-1.6,0,1.07,1.07,0,0,1,0-1.548l4.066-3.935a1.157,1.157,0,0,1,1.6,0l2.372,2.3,2.407-2.33H95.45a1.095,1.095,0,1,1,0-2.188h2.918a1.113,1.113,0,0,1,1.13,1.094Zm0,11.779a1.113,1.113,0,0,1-1.13,1.094H85.995a1.095,1.095,0,1,1,0-2.188H98.367A1.113,1.113,0,0,1,99.5,46.316Z" transform="translate(-74.865 -27.5)" fill="#f29200"/><path d="M99.5,50.694a1.113,1.113,0,0,1-1.13,1.094H85.995a1.095,1.095,0,1,1,0-2.188H98.367A1.113,1.113,0,0,1,99.5,50.694ZM95.84,55.07a1.113,1.113,0,0,1-1.13,1.094H85.995a1.095,1.095,0,1,1,0-2.188H94.71A1.113,1.113,0,0,1,95.84,55.07Z" transform="translate(-74.865 -27.5)"/></g></svg>