<svg xmlns="http://www.w3.org/2000/svg" xmlns:xlink="http://www.w3.org/1999/xlink" width="40" height="40" viewBox="0 0 40 40"><defs><clipPath id="a"><rect width="40" height="40"/></clipPath></defs><g id="b" clip-path="url(#a)"><g clip-path="url(#a)"><g transform="translate(-9.1 -7.9)"><g transform="translate(11.1 7.9)"><path d="M46.452,16.864,38.006,8.887A3.594,3.594,0,0,0,35.481,7.9H14.67a3.437,3.437,0,0,0-3.57,3.372v32.9a3.437,3.437,0,0,0,3.57,3.372H43.927a3.437,3.437,0,0,0,3.57-3.372V19.249a3.079,3.079,0,0,0-1.045-2.385Zm-1.567,27.3a.941.941,0,0,1-.958.9H14.67a.941.941,0,0,1-.958-.9V11.272a.941.941,0,0,1,.958-.9H35.481a1.023,1.023,0,0,1,.7.247L44.627,18.6a.9.9,0,0,1,.261.658Z" transform="translate(-11.1 -7.9)" fill="#1d1c1b"/><path d="M20.116,36.812H30.478a1.308,1.308,0,0,0,0-2.612H20.116a1.308,1.308,0,0,0,0,2.612Z" transform="translate(-12.105 -12.656)" fill="#f29200"/><path d="M40.5,39.7H20.216a1.308,1.308,0,0,0,0,2.612H40.5a1.308,1.308,0,0,0,0-2.612Z" transform="translate(-12.118 -13.651)" fill="#1d1c1b"/><path d="M34.048,45.3H20.116a1.308,1.308,0,0,0,0,2.612H34.048a1.308,1.308,0,0,0,0-2.612Z" transform="translate(-12.105 -14.663)" fill="#1d1c1b"/><path d="M22.969,28.616l4.7-4.7,4.7,4.7a1.263,1.263,0,0,0,1.829,0l5.747-5.747c1.219-1.219-.7-3.048-1.829-1.829l-4.789,4.789-4.7-4.7a1.263,1.263,0,0,0-1.829,0l-5.66,5.66a1.293,1.293,0,1,0,1.831,1.827Z" transform="translate(-12.346 -10.316)" fill="#f29200"/></g></g></g></g></svg>