<svg xmlns="http://www.w3.org/2000/svg" xmlns:xlink="http://www.w3.org/1999/xlink" width="40" height="40" viewBox="0 0 40 40"><defs><clipPath id="b"><rect width="40" height="40"/></clipPath></defs><g id="a" clip-path="url(#b)"><g transform="translate(-1.1 -1.55)"><g transform="translate(1.1 2.55)"><path d="M21.1,34.776H6.617a3.1,3.1,0,0,1-3.1-3.1V9.892a3.1,3.1,0,0,1,3.1-3.1H9.532v.73a1.208,1.208,0,1,0,2.416,0v-.73H26.4v.73a1.208,1.208,0,1,0,2.416,0v-.73h2.9a3.1,3.1,0,0,1,3.1,3.1v8.631a1.208,1.208,0,1,0,2.416,0V9.892a5.523,5.523,0,0,0-5.517-5.517h-2.9V3.758a1.208,1.208,0,1,0-2.416,0v.617H11.948V3.758a1.208,1.208,0,1,0-2.416,0v.617H6.617A5.523,5.523,0,0,0,1.1,9.892V31.677a5.522,5.522,0,0,0,5.517,5.517H21.1a1.209,1.209,0,0,0,0-2.417Z" transform="translate(-1.1 -2.55)"/><path d="M8.45,12.244a1.395,1.395,0,1,0,1.395,1.395A1.394,1.394,0,0,0,8.45,12.244Z" transform="translate(0.938 0.768)"/><path d="M14.919,12.244a1.395,1.395,0,1,0,1.395,1.395A1.394,1.394,0,0,0,14.919,12.244Z" transform="translate(3.152 0.768)"/><path d="M19.992,13.639a1.395,1.395,0,1,0,1.395-1.395A1.394,1.394,0,0,0,19.992,13.639Z" transform="translate(5.366 0.768)"/><path d="M8.45,17.905A1.395,1.395,0,1,0,9.844,19.3,1.394,1.394,0,0,0,8.45,17.905Z" transform="translate(0.938 2.705)"/><path d="M14.919,17.905A1.395,1.395,0,1,0,16.313,19.3,1.394,1.394,0,0,0,14.919,17.905Z" transform="translate(3.152 2.705)"/><path d="M26.7,16.665a8.581,8.581,0,1,0,8.582,8.581A8.592,8.592,0,0,0,26.7,16.665Zm0,14.743a6.164,6.164,0,1,1,6.165-6.164A6.172,6.172,0,0,1,26.7,31.408Z" transform="translate(4.722 4.281)" fill="#f29200"/><path d="M27.2,21.489l-2.647,2.133L23.9,22.78A1.208,1.208,0,0,0,22,24.273l1.415,1.8a1.2,1.2,0,0,0,.812.455,1.176,1.176,0,0,0,.138.008,1.209,1.209,0,0,0,.757-.267l3.6-2.9A1.209,1.209,0,0,0,27.2,21.489Z" transform="translate(5.964 5.84)" fill="#f29200"/></g></g></g></svg>