<svg xmlns="http://www.w3.org/2000/svg" width="39.347" height="36.644" viewBox="0 0 39.347 36.644"><g transform="translate(-56.6 -29.63)"><g transform="translate(56.928 25.762)"><path d="M34.157,30.668v-.492a.447.447,0,1,1,.895,0v.492a.448.448,0,0,1-.9,0Zm2.237.447a.448.448,0,0,0,.447-.447v-.492a.448.448,0,1,0-.9,0v.492a.448.448,0,0,0,.448.447Zm-2.237-3.444a.448.448,0,1,0-.9,0v.492a.447.447,0,1,0,.895,0Zm1.342.939a.448.448,0,0,0,.447-.447v-.492a.448.448,0,1,0-.9,0v.492a.448.448,0,0,0,.449.447Zm1.789,0a.448.448,0,0,0,.447-.447v-.492a.448.448,0,1,0-.9,0v.492a.448.448,0,0,0,.448.447Z" transform="translate(1.02 0.711)" fill="#1d1c1b"/><path d="M26.889,26.261a2.132,2.132,0,0,1-.9-.179,2.33,2.33,0,0,1-2.371.537L18.077,24.65c-.179.313-.76,1.342-.984,1.655a11.759,11.759,0,0,1,1.3,1.655,3.112,3.112,0,0,1,.358,1.208l.492,8.588a2.889,2.889,0,0,1-5.77.313l-.4-7.2a3.133,3.133,0,0,1-.582,1.745L7.341,39.5a2.894,2.894,0,1,1-4.652-3.444l4.563-6.128v-6.4a5.345,5.345,0,0,1,.716-3.086l3.623-6.262A5.438,5.438,0,0,1,21.7,17.4l.76,2.55,5.234,1.879a2.26,2.26,0,0,1,1.521,2.1l6.4.76a.453.453,0,0,1,.313.179L37,26.216h1.745a.448.448,0,0,1,0,.9h-4.43a.448.448,0,0,1,0-.9H35.88l-.492-.671-6.262-.76a2.419,2.419,0,0,1-2.237,1.476Zm-10.378.716a5.693,5.693,0,0,1-3.444,1.566v.492c.179.268.939.984.9,1.208l.447,7.783a2.058,2.058,0,0,0,2.1,1.879,2,2,0,0,0,1.879-2.1L17.9,29.213c-.091-.85-.941-1.613-1.389-2.237Zm.671-2.639a2.392,2.392,0,0,1-1.342-1.521c-.045-.179-1.61-5.323-1.521-5.323a2.314,2.314,0,0,1,4.518-.85l.939,3.176a4.557,4.557,0,1,0-7.425-5.234L8.728,20.848a4.364,4.364,0,0,0-.582,2.594v6.62a.636.636,0,0,1-.089.268L3.4,36.549a1.985,1.985,0,0,0,.4,2.773,2.04,2.04,0,0,0,2.773-.4l5.144-6.889a2.582,2.582,0,0,0,.4-1.163V28.095a.448.448,0,0,1,.447-.447,4.488,4.488,0,0,0,3.981-2.237Zm7.694-1.208L19.6,21.251a.534.534,0,0,1-.447-.358L17.99,16.957a1.433,1.433,0,0,0-1.745-.939,1.378,1.378,0,0,0-.939,1.745l1.431,4.831a1.549,1.549,0,0,0,.9.939l6.352,2.237a1.394,1.394,0,1,0,.892-2.641Zm2.147.939a.444.444,0,0,1,.492-.4l.76.089a1.356,1.356,0,0,0-.895-1.118l-5.457-1.968a.473.473,0,0,1-.268-.313l-.4-1.3c-.134.358-.626,1.118-.805,1.476l4.742,1.745a2.293,2.293,0,0,1,1.342,3.042A1.383,1.383,0,0,0,28.1,24.7l-.671-.089a.462.462,0,0,1-.406-.542ZM17.764,8.681a4,4,0,1,1,3.981,4.026A4.058,4.058,0,0,1,17.764,8.681Zm.939,0a3.086,3.086,0,1,0,3.086-3.086A3.086,3.086,0,0,0,18.7,8.681ZM5.373,21.43l-3.31-1.923A3.191,3.191,0,0,1,.9,15.212l3.936-6.8A3.14,3.14,0,0,1,9.131,7.25l3.31,1.923A1.025,1.025,0,0,1,12.8,10.6l-6,10.472a1.109,1.109,0,0,1-1.427.358ZM2.51,18.7l3.31,1.923h0c.089.045.134,0,.179-.045l6.039-10.467c.045-.045,0-.134-.045-.179L8.683,8.01a2.217,2.217,0,0,0-3.042.805L1.7,15.615a2.289,2.289,0,0,0,.8,3.085Zm3.4,1.074a.5.5,0,0,1-.358-.045l-1.208-.716A3.357,3.357,0,0,1,2.779,17a3.4,3.4,0,0,1,.313-2.55l1.029-1.789a.459.459,0,0,1,.582-.224,1.9,1.9,0,0,0,2.013-.268,3.337,3.337,0,0,1,3.31-.358.437.437,0,0,1,.224.671L6.178,19.551a.458.458,0,0,1-.268.224Zm3.265-7.247a2.334,2.334,0,0,0-1.968.4,2.952,2.952,0,0,1-2.46.492L3.9,14.9A2.42,2.42,0,0,0,4.8,18.21l.85.492Z" transform="translate(-0.423 -0.589)" fill="#1d1c1b" stroke="#1d1c1b" stroke-width="0.5"/><path d="M30.665,28.267v-.492a.447.447,0,1,1,.895,0v.492a.448.448,0,0,1-.9,0Zm2.237.447a.448.448,0,0,0,.447-.447v-.492a.448.448,0,1,0-.9,0v.492a.448.448,0,0,0,.446.447ZM30.665,25.27a.448.448,0,0,0-.9,0v.492a.447.447,0,1,0,.895,0Zm1.342.939a.448.448,0,0,0,.447-.447V25.27a.448.448,0,0,0-.9,0v.492A.448.448,0,0,0,32.007,26.209Zm1.789,0a.448.448,0,0,0,.447-.447V25.27a.447.447,0,1,0-.895,0v.492a.448.448,0,0,0,.452.447Z" transform="translate(4.513 3.111)" fill="#f29200" stroke="#f29200" stroke-width="0.4"/></g></g></svg>