<svg xmlns="http://www.w3.org/2000/svg" xmlns:xlink="http://www.w3.org/1999/xlink" width="40" height="40" viewBox="0 0 40 40"><defs><clipPath id="b"><rect width="40" height="40"/></clipPath></defs><g id="a" clip-path="url(#b)"><g transform="translate(0.002 0)"><ellipse cx="1.594" cy="2.089" rx="1.594" ry="2.089" transform="translate(27.036 15.95)" fill="#f29200"/><ellipse cx="1.594" cy="2.089" rx="1.594" ry="2.089" transform="translate(9.502 15.95)" fill="#f29200"/><ellipse cx="2.391" cy="2.089" rx="2.391" ry="2.089" transform="translate(17.472 15.95)" fill="#f29200"/><path d="M38.121,19c10.546,0,19.128,8.022,19.128,17.894a17,17,0,0,1-2.857,9.391l-.191.291.148.315A18.129,18.129,0,0,0,55.693,49.3l.827,1.231a4.319,4.319,0,0,1-3.592,6.725,16.443,16.443,0,0,1-9.454-2.961l-.228-.16-.272.068a20.245,20.245,0,0,1-4.856.586c-10.546,0-19.128-8.022-19.128-17.894S27.576,19,38.121,19Zm0,32.085h1.006a16.5,16.5,0,0,0,2.912-.438,4.584,4.584,0,0,1,3.653.7,12.8,12.8,0,0,0,7.237,2.2.616.616,0,0,0,.512-.957l-.827-1.231a22.211,22.211,0,0,1-1.9-3.512,3.313,3.313,0,0,1,0-2.524h0a3.7,3.7,0,0,1,.42-.783,13.656,13.656,0,0,0,1.8-3.6,13.093,13.093,0,0,0,.616-4.048c0-7.823-6.917-14.191-15.426-14.191S22.7,29.07,22.7,36.894,29.613,51.085,38.121,51.085Z" transform="translate(-17.992 -18)" fill="#f29200"/></g></g></svg>