<svg xmlns="http://www.w3.org/2000/svg" xmlns:xlink="http://www.w3.org/1999/xlink" width="40" height="40" viewBox="0 0 40 40"><defs><clipPath id="b"><rect width="40" height="40"/></clipPath></defs><g id="a" clip-path="url(#b)"><g transform="translate(0.287 0.848)"><g transform="translate(20.031 25.393)"><circle cx="0.776" cy="0.776" r="0.776" transform="translate(15.516 8.696)" fill="#f29200" stroke="#f29200" stroke-width="0.5"/><circle cx="0.776" cy="0.776" r="0.776" transform="translate(16.679 4.348)" fill="#f29200" stroke="#f29200" stroke-width="0.5"/><circle cx="0.776" cy="0.776" r="0.776" transform="translate(17.842)" fill="#f29200" stroke="#f29200" stroke-width="0.5"/><circle cx="0.776" cy="0.776" r="0.776" transform="translate(10.454 2.446)" fill="#f29200" stroke="#f29200" stroke-width="0.5"/><circle cx="0.776" cy="0.776" r="0.776" transform="translate(12.838 5.558)" fill="#f29200" stroke="#f29200" stroke-width="0.5"/><circle cx="0.776" cy="0.776" r="0.776" transform="translate(13.991 1.251)" fill="#f29200" stroke="#f29200" stroke-width="0.5"/><path d="M54.3,67.445l-6.613-.631.1-1.034c4.136.4,6.613.626,6.613.626Z" transform="translate(-47.69 -64.358)" fill="#f29200" stroke="#f29200" stroke-width="0.5"/><path d="M62.045,68.34h-.052l-2.12-.2a.517.517,0,0,1-.465-.564l.186-2.022a.517.517,0,0,1,.564-.47l2.125.2a.524.524,0,0,1,.465.564l-.191,2.011a.52.52,0,0,1-.512.476Zm-1.551-1.184,1.091.1.093-.982-1.091-.1Z" transform="translate(-53.348 -64.023)" fill="#f29200" stroke="#f29200" stroke-width="0.5"/></g><circle cx="0.791" cy="0.791" r="0.791" transform="translate(3.44 17.896)" fill="#f29200" stroke="#f29200" stroke-width="0.5"/><g transform="translate(0 -0.848)"><path d="M37.827,54.221a2.321,2.321,0,0,1-1.251-.4.517.517,0,0,1-.109-.1l-5.91-7.621a.517.517,0,0,1-.1-.259l-.279-2.4A11.137,11.137,0,0,1,31.488,36.6a4.5,4.5,0,0,1,3.619-2.182,2.637,2.637,0,0,1,2.275,1.515c.745,1.422.367,3.071.031,4.529-.072.315-.14.615-.2.91-.119.631-.29,1.267-.429,1.779l-.248.874a1.245,1.245,0,0,1-.057.181c-.026.083-.067.176-.093.264l1.168,1.954c.16.269.352.558.553.863,1.122,1.716,2.657,4.064,1.236,6.1a1.872,1.872,0,0,1-1.215.822,2.144,2.144,0,0,1-.305.016Zm-.595-1.21a.869.869,0,0,0,1.267-.233c1.034-1.453-.186-3.3-1.251-4.932-.212-.321-.408-.62-.579-.9l-1.251-2.1c-.16-.264-.072-.548.088-1l.041-.1.243-.889c.171-.631.31-1.153.414-1.7.057-.3.129-.62.2-.946.31-1.344.626-2.73.062-3.816a1.6,1.6,0,0,0-1.4-.962,3.469,3.469,0,0,0-2.725,1.685,10.232,10.232,0,0,0-1.163,6.178l.259,2.254Z" transform="translate(-19.155 -22.845)" fill="#131313" stroke="#131313" stroke-width="0.3"/><path d="M15.437,44.2a.594.594,0,0,1-.186-.036l-5.982-2.28a.517.517,0,0,1-.295-.646L11.766,32.7a5,5,0,0,1,2.885-3.392c2.068-.8,4.653.341,5.408.708a.517.517,0,0,1,.29.626l-4.395,13.2a.517.517,0,0,1-.269.305.558.558,0,0,1-.248.052ZM10.1,41.1l5.02,1.913L19.2,30.757a6.035,6.035,0,0,0-4.178-.481,3.926,3.926,0,0,0-2.27,2.751Z" transform="translate(-8.946 -20.643)" fill="#131313" stroke="#131313" stroke-width="0.3"/><path d="M20.986,78.792l-1.308-9.234a.507.507,0,0,1,.677-.589.367.367,0,0,1,.093.041c.734.2,6.54,1.153,10.123,1.722a.517.517,0,0,1,.434.543l-.476,7.5L29.5,78.71l.445-7.031c-5.434-.863-7.952-1.277-9.136-1.551l1.2,8.526Z" transform="translate(-14.123 -38.792)" fill="#131313" stroke="#131313" stroke-width="0.3"/><path d="M38.113,23.095h-.057a4.591,4.591,0,1,1,4.715-5.206,4.5,4.5,0,0,1,0,1.236l-1.034-.14a3.294,3.294,0,0,0,0-.956,3.552,3.552,0,1,0-3.619,4.033h.067l.29.988a1.122,1.122,0,0,1-.362.047Z" transform="translate(-20.868 -13.916)" fill="#131313" stroke="#131313" stroke-width="0.3"/><path d="M43.2,26.656a6.907,6.907,0,0,1-1.091-.093.517.517,0,0,1-.419-.646s.114-.569.346-4.276a.516.516,0,0,1,.641-.465s2.032.517,3.562.853a.517.517,0,0,1,.4.429,4.192,4.192,0,0,1-.925,3.293,3.407,3.407,0,0,1-2.513.9Zm-.429-1.034a2.683,2.683,0,0,0,2.213-.584,2.859,2.859,0,0,0,.657-2.068c-.941-.212-1.975-.47-2.611-.626-.119,1.773-.2,2.74-.259,3.257Z" transform="translate(-24.753 -17.415)" fill="#131313" stroke="#131313" stroke-width="0.3"/><path d="M41.216,21.721a.651.651,0,0,1-.145,0L39.313,21.2a.517.517,0,1,1,.279-.993l1.763.517a.522.522,0,1,1-.14,1.034Z" transform="translate(-23.412 -16.941)" fill="#131313" stroke="#131313" stroke-width="0.3"/><path d="M27.749,61.448l-1.954-.191c-2.559-.253-4.979-.517-6.2-.682a4.612,4.612,0,0,1-4.048-4.994l1.034.078a3.64,3.64,0,0,0,3.175,3.893c1.22.186,3.619.424,6.173.677l1.954.191Z" transform="translate(-12.123 -32.912)" fill="#131313" stroke="#131313" stroke-width="0.3"/><path d="M19.4,65.345c-.041-.125-1.034-3.13.419-8.295l.982.407c-1.308,4.676-.45,7.387-.445,7.412Z" transform="translate(-13.814 -34.253)" fill="#131313" stroke="#131313" stroke-width="0.3"/><rect width="2.646" height="1.034" transform="matrix(0.174, -0.985, 0.985, 0.174, 15.876, 31.996)" fill="#131313" stroke="#131313" stroke-width="0.3"/><path d="M35.911,34.473c-.9-.972-4.826-2.407-6.081-2.619L30,30.82c.512.083,5.359,1.528,6.629,2.929Z" transform="translate(-19.23 -21.66)" fill="#131313" stroke="#131313" stroke-width="0.3"/></g></g></g></svg>