<svg xmlns="http://www.w3.org/2000/svg" xmlns:xlink="http://www.w3.org/1999/xlink" width="40" height="40" viewBox="0 0 40 40"><defs><clipPath id="b"><rect width="40" height="40"/></clipPath></defs><g id="a" clip-path="url(#b)"><path d="M573.838,803.176a1.132,1.132,0,1,1-2.265,0V792.419a1.132,1.132,0,1,1,2.265,0Zm-23.53-25.561a1.132,1.132,0,1,1,.982,2.041,14.178,14.178,0,0,0-8.026,12.763v10.766a1.132,1.132,0,1,1-2.265,0V792.419a16.442,16.442,0,0,1,9.308-14.8Zm22.074,8.032a1.133,1.133,0,0,1-2.063.935,14.17,14.17,0,0,0-12.9-8.318,1.132,1.132,0,1,1,0-2.265,16.436,16.436,0,0,1,14.962,9.648Zm-3.639,9.6a1.132,1.132,0,0,1-2.265,0v-2.831a9.059,9.059,0,1,0-18.118,0,1.132,1.132,0,0,1-2.265,0,11.323,11.323,0,1,1,22.647,0ZM546.1,797.515a1.132,1.132,0,1,1,2.265,0v2.265a1.132,1.132,0,1,1-2.265,0Zm0,7.927a1.132,1.132,0,1,1,2.265,0v3.4a1.132,1.132,0,1,1-2.265,0Zm22.647,3.4a1.132,1.132,0,1,1-2.265,0v-7.36a1.132,1.132,0,1,1,2.265,0Zm-5.1,3.4a1.132,1.132,0,1,1-2.265,0V792.419a1.132,1.132,0,1,1,2.265,0ZM559.372,786.5a1.132,1.132,0,0,1-.709,2.151,3.967,3.967,0,0,0-5.207,3.765,1.132,1.132,0,0,1-2.265,0,6.232,6.232,0,0,1,8.181-5.915Zm-8.181,11.011a1.132,1.132,0,0,1,2.265,0v14.721a1.132,1.132,0,1,1-2.265,0Zm5.1,10.757a1.132,1.132,0,1,1,2.265,0v5.1a1.132,1.132,0,1,1-2.265,0Zm0-15.853a1.132,1.132,0,1,1,2.265,0V802.61a1.132,1.132,0,1,1-2.265,0Z" transform="translate(-537 -775)"/></g></svg>